<svg xmlns="http://www.w3.org/2000/svg" width="1000" height="300" viewBox="0 0 1000 300"><rect width="100%" height="100%" fill="#14532d"/><path fill="#ffffff" d="M268.25 91.31h17.95v96.16h-17.95v-42.03h-45.16v42.03h-17.95V91.31h17.95v41.36h45.16zm49.74 54.2h30.99q0-3.19-.9-6.02t-2.69-4.95q-1.8-2.13-4.56-3.36t-6.42-1.23q-7.11 0-11.2 4.05-4.09 4.06-5.22 11.51m41.89 9.91h-42.22q.4 5.25 1.86 9.07 1.46 3.83 3.86 6.32 2.39 2.5 5.68 3.73t7.28 1.23 6.89-.94q2.89-.93 5.05-2.06t3.79-2.06 3.16-.93q2.06 0 3.06 1.53l4.72 5.99q-2.73 3.19-6.12 5.35t-7.08 3.46q-3.69 1.29-7.52 1.83-3.82.53-7.41.53-7.12 0-13.23-2.36-6.12-2.36-10.64-6.99-4.53-4.62-7.12-11.43-2.59-6.82-2.59-15.8 0-6.98 2.26-13.13t6.48-10.71q4.22-4.55 10.31-7.21 6.08-2.66 13.73-2.66 6.45 0 11.91 2.06 5.45 2.06 9.37 6.02 3.93 3.95 6.15 9.71 2.23 5.75 2.23 13.13 0 3.72-.8 5.02t-3.06 1.3m52.21 14.43v-11.51q-7.12.34-11.97 1.23-4.86.9-7.78 2.3-2.93 1.39-4.19 3.26-1.27 1.86-1.27 4.05 0 4.33 2.56 6.19t6.69 1.86q5.05 0 8.74-1.83t7.22-5.55M377.37 134l-2.92-5.25q11.77-10.77 28.33-10.77 5.98 0 10.7 1.96t7.98 5.45 4.96 8.35q1.69 4.85 1.69 10.64v43.09h-7.45q-2.32 0-3.59-.7-1.26-.7-1.99-2.82l-1.46-4.93q-2.6 2.33-5.06 4.09-2.46 1.77-5.12 2.96-2.66 1.2-5.68 1.83-3.03.63-6.69.63-4.32 0-7.98-1.16t-6.32-3.49-4.12-5.79q-1.46-3.45-1.46-8.04 0-2.6.86-5.16.87-2.56 2.83-4.88 1.96-2.33 5.09-4.39 3.12-2.06 7.68-3.59 4.55-1.53 10.6-2.5 6.06-.96 13.84-1.16v-3.99q0-6.85-2.93-10.14-2.93-3.3-8.45-3.3-3.99 0-6.61.94-2.63.93-4.62 2.09-2 1.16-3.63 2.1-1.63.93-3.62.93-1.73 0-2.93-.9t-1.93-2.1m114.72-14.76h12.96l-27.06 68.23h-14.9l-27.06-68.23h13.56q1.86 0 3.09.87 1.23.86 1.63 2.19l13.17 36.44q1.06 3.19 1.86 6.25t1.4 6.12q.66-3.06 1.46-6.12t1.93-6.25l13.43-36.44q.47-1.33 1.67-2.19 1.19-.87 2.86-.87m70.49 0h13.16l-37.17 86.98q-.73 1.73-1.9 2.63-1.16.9-3.55.9h-12.24l12.77-27.4-27.6-63.11h14.43q1.93 0 3.03.93 1.09.93 1.63 2.13l14.49 35.38q.73 1.79 1.23 3.59.5 1.79.97 3.66.6-1.87 1.19-3.69.6-1.83 1.33-3.63l13.7-35.31q.54-1.33 1.77-2.19 1.23-.87 2.76-.87m115.64 20.15q0 10.57-3.49 19.58-3.49 9.02-9.88 15.6-6.38 6.58-15.36 10.27t-19.95 3.69q-10.9 0-19.88-3.69t-15.4-10.27q-6.41-6.58-9.94-15.6-3.52-9.01-3.52-19.58t3.52-19.58q3.53-9.01 9.94-15.6 6.42-6.58 15.4-10.27t19.88-3.69q7.32 0 13.77 1.69 6.45 1.7 11.83 4.79 5.39 3.09 9.68 7.52 4.29 4.42 7.28 9.87t4.56 11.84q1.56 6.38 1.56 13.43m-18.29 0q0-7.91-2.13-14.2-2.12-6.28-6.05-10.67-3.92-4.39-9.54-6.72-5.62-2.32-12.67-2.32t-12.67 2.32q-5.62 2.33-9.57 6.72-3.96 4.39-6.09 10.67-2.13 6.29-2.13 14.2t2.13 14.2q2.13 6.28 6.09 10.64 3.95 4.35 9.57 6.68t12.67 2.33 12.67-2.33 9.54-6.68q3.93-4.36 6.05-10.64 2.13-6.29 2.13-14.2m45.95-16.03 1 7.72q3.19-6.12 7.58-9.61t10.38-3.49q4.72 0 7.58 2.06l-1.07 12.3q-.33 1.2-.96 1.7t-1.7.5q-.99 0-2.96-.34-1.96-.33-3.82-.33-2.73 0-4.85.8-2.13.8-3.83 2.29-1.69 1.5-2.99 3.63t-2.43 4.85v42.03h-16.42v-68.23h9.64q2.53 0 3.52.9 1 .9 1.33 3.22m88.32 4.33-4.33 5.98q-.73.93-1.43 1.46-.7.54-2.03.54-1.26 0-2.46-.77-1.19-.76-2.86-1.73-1.66-.96-3.95-1.73-2.3-.76-5.69-.76-4.32 0-7.58 1.56t-5.42 4.49-3.22 7.08q-1.07 4.16-1.07 9.41 0 5.46 1.17 9.71 1.16 4.26 3.35 7.15 2.2 2.89 5.32 4.39 3.13 1.5 7.05 1.5 3.93 0 6.35-.97 2.43-.96 4.09-2.13 1.67-1.16 2.9-2.12 1.23-.97 2.76-.97 1.99 0 2.99 1.53l4.72 5.99q-2.73 3.19-5.92 5.35t-6.61 3.46q-3.43 1.29-7.05 1.83-3.63.53-7.22.53-6.32 0-11.9-2.36-5.59-2.36-9.78-6.89-4.19-4.52-6.62-11.07-2.42-6.55-2.42-14.93 0-7.51 2.16-13.93t6.35-11.1q4.19-4.69 10.37-7.35 6.19-2.66 14.23-2.66 7.65 0 13.4 2.46 5.76 2.46 10.35 7.05"/></svg>